<?xml version="1.0" encoding="UTF-8"?><svg id="Layer_2" xmlns="http://www.w3.org/2000/svg" viewBox="0 0 13.47 16"><defs><style>.cls-1{fill:#fff;}</style></defs><g id="Design"><path class="cls-1" d="m5.41,0c-.57,0-1.03.46-1.03,1.03s.46,1.03,1.03,1.03,1.03-.46,1.03-1.03S5.97,0,5.41,0Z"/><path class="cls-1" d="m5.41,13.95c-.57,0-1.03.46-1.03,1.03s.46,1.03,1.03,1.03,1.03-.46,1.03-1.03-.46-1.03-1.03-1.03Z"/><path class="cls-1" d="m10.11,9.3c-.57,0-1.03.46-1.03,1.03s.46,1.03,1.03,1.03,1.03-.46,1.03-1.03c0-.57-.46-1.03-1.03-1.03Z"/><path class="cls-1" d="m10.11,4.65c-.57,0-1.03.46-1.03,1.03s.46,1.03,1.03,1.03,1.03-.46,1.03-1.03-.46-1.03-1.03-1.03Z"/><path class="cls-1" d="m7.76,2.32c-.57,0-1.03.46-1.03,1.03s.46,1.03,1.03,1.03,1.03-.46,1.03-1.03-.46-1.03-1.03-1.03Z"/><path class="cls-1" d="m7.76,11.62c-.57,0-1.03.46-1.03,1.03s.46,1.03,1.03,1.03,1.03-.46,1.03-1.03c0-.57-.46-1.03-1.03-1.03Z"/><path class="cls-1" d="m12.44,6.97c-.57,0-1.03.46-1.03,1.03s.46,1.03,1.03,1.03,1.03-.46,1.03-1.03-.46-1.03-1.03-1.03Z"/><path class="cls-1" d="m1.03,0C.46,0,0,.46,0,1.03s.46,1.03,1.03,1.03,1.03-.46,1.03-1.03S1.59,0,1.03,0Z"/><path class="cls-1" d="m1.03,13.95C.46,13.95,0,14.41,0,14.97c0,.57.46,1.03,1.03,1.03s1.03-.46,1.03-1.03-.46-1.03-1.03-1.03Z"/><path class="cls-1" d="m5.73,9.3c-.57,0-1.03.46-1.03,1.03s.46,1.03,1.03,1.03,1.03-.46,1.03-1.03-.46-1.03-1.03-1.03Z"/><path class="cls-1" d="m5.73,4.65c-.57,0-1.03.46-1.03,1.03s.46,1.03,1.03,1.03,1.03-.46,1.03-1.03-.46-1.03-1.03-1.03Z"/><path class="cls-1" d="m3.38,2.32c-.57,0-1.03.46-1.03,1.03s.46,1.03,1.03,1.03c.57,0,1.03-.46,1.03-1.03s-.46-1.03-1.03-1.03Z"/><path class="cls-1" d="m3.38,11.62c-.57,0-1.03.46-1.03,1.03s.46,1.03,1.03,1.03,1.03-.46,1.03-1.03-.46-1.03-1.03-1.03Z"/><path class="cls-1" d="m8.06,6.97c-.57,0-1.03.46-1.03,1.03,0,.57.46,1.03,1.03,1.03s1.03-.46,1.03-1.03-.46-1.03-1.03-1.03Z"/></g></svg>